<?xml version="1.0" encoding="UTF-8" standalone="no"?>
<!DOCTYPE svg PUBLIC "-//W3C//DTD SVG 1.1//EN" "http://www.w3.org/Graphics/SVG/1.1/DTD/svg11.dtd">
<svg version="1.1" xmlns="http://www.w3.org/2000/svg" xmlns:xlink="http://www.w3.org/1999/xlink" preserveAspectRatio="xMidYMid meet" viewBox="0 0 640 640" width="640" height="640"><defs><path d="" id="bi6K0B7my"></path><path d="M296.36 105.83C305.22 103.92 313.96 109.55 315.87 118.42C329.95 183.63 368.7 363.23 382.78 428.44C384.69 437.3 379.05 446.04 370.19 447.96C324.52 457.81 203.58 483.91 157.92 493.76C149.05 495.68 140.32 490.04 138.4 481.18C124.33 415.96 85.57 236.37 71.5 171.16C69.59 162.29 75.22 153.55 84.09 151.64C129.75 141.79 250.69 115.69 296.36 105.83Z" id="bDdjS3hV"></path><clipPath id="clipg24ihbbJbx"><use xlink:href="#bDdjS3hV" opacity="1"></use></clipPath><path d="" id="bgFJNk0Re"></path><path d="M237.2 284.29L270.64 290.41L242.89 310.69L236.52 343.3L217.21 316.23L183.64 309.18L211.51 289.83L217.75 256.3L237.2 284.29Z" id="b2OC3AXx2M"></path><path d="M341 402.09L354.02 404.47L343.22 412.36L340.74 425.05L333.22 414.52L320.16 411.78L331 404.24L333.43 391.19L341 402.09Z" id="b11vfkwaee"></path><path d="M120.31 183.23L133.32 185.62L122.52 193.51L120.05 206.2L112.53 195.67L99.46 192.92L110.31 185.39L112.74 172.34L120.31 183.23Z" id="b2EGP0XIen"></path><path d="M555.8 203.69C564.68 205.54 570.38 214.24 568.52 223.12C554.9 288.43 517.38 468.28 503.75 533.59C501.9 542.47 493.2 548.17 484.33 546.31C438.59 536.77 317.48 511.51 271.75 501.97C262.87 500.11 257.17 491.42 259.02 482.54C272.65 417.23 310.17 237.37 323.79 172.06C325.65 163.19 334.34 157.49 343.22 159.34C388.95 168.88 510.07 194.15 555.8 203.69Z" id="axCg10HuL"></path><clipPath id="clipdbHcoRd4S"><use xlink:href="#axCg10HuL" opacity="1"></use></clipPath><path d="" id="d14X0mspWe"></path><path d="M401.07 309.71L417.69 334.05L441.87 318.22L457.71 342.4L405.68 391.61L377.68 325.7L401.07 309.71Z" id="d7hNw6jbHX"></path><path d="M456.86 511.37L467.44 504.73L474.15 514.98L484.39 508.27L472.53 480.34L450.48 501.19L456.86 511.37Z" id="c2guQlWyeB"></path><path d="M351.25 187.86L358.29 198.18L368.54 191.47L375.25 201.71L353.2 222.57L341.34 194.64L351.25 187.86Z" id="aJTzj4y4X"></path></defs><g><g><g><g><g><use xlink:href="#bi6K0B7my" opacity="1" fill-opacity="0" stroke="#000000" stroke-width="7" stroke-opacity="1"></use></g></g><g><use xlink:href="#bDdjS3hV" opacity="1" fill="#ffffff" fill-opacity="0.99"></use><g clip-path="url(#clipg24ihbbJbx)"><use xlink:href="#bDdjS3hV" opacity="1" fill-opacity="0" stroke="#000000" stroke-width="14" stroke-opacity="1"></use></g></g><g><g><use xlink:href="#bgFJNk0Re" opacity="1" fill-opacity="0" stroke="#000000" stroke-width="3" stroke-opacity="1"></use></g></g><g><g><use xlink:href="#b2OC3AXx2M" opacity="1" fill-opacity="0" stroke="#000000" stroke-width="7" stroke-opacity="1"></use></g></g><g><g><use xlink:href="#b11vfkwaee" opacity="1" fill-opacity="0" stroke="#000000" stroke-width="7" stroke-opacity="1"></use></g></g><g><g><use xlink:href="#b2EGP0XIen" opacity="1" fill-opacity="0" stroke="#000000" stroke-width="7" stroke-opacity="1"></use></g></g></g><g><g><use xlink:href="#axCg10HuL" opacity="1" fill="#ffffff" fill-opacity="0.99"></use><g clip-path="url(#clipdbHcoRd4S)"><use xlink:href="#axCg10HuL" opacity="1" fill-opacity="0" stroke="#000000" stroke-width="14" stroke-opacity="1"></use></g></g><g><g><use xlink:href="#d14X0mspWe" opacity="1" fill-opacity="0" stroke="#000000" stroke-width="3" stroke-opacity="1"></use></g></g><g><g><use xlink:href="#d7hNw6jbHX" opacity="1" fill-opacity="0" stroke="#000000" stroke-width="7" stroke-opacity="1"></use></g></g><g><g><use xlink:href="#c2guQlWyeB" opacity="1" fill-opacity="0" stroke="#000000" stroke-width="7" stroke-opacity="1"></use></g></g><g><g><use xlink:href="#aJTzj4y4X" opacity="1" fill-opacity="0" stroke="#000000" stroke-width="7" stroke-opacity="1"></use></g></g></g></g></g></svg>